<?xml version="1.0" encoding="UTF-8" standalone="no"?>
<svg version="1.1" xmlns="http://www.w3.org/2000/svg" viewBox="0 0 75 96">
   <path
      id="path1"
      d="M 59.514398,29.856844 C 52.449809,19.681243 38.385444,16.699857 28.274656,23.116318 L 10.451151,34.523361 c -4.8609555,3.046199 -8.2312185,8.03678 -9.2034095,13.675489 -0.84256499,4.73133 -0.129625,9.592286 2.138821,13.805115 -1.555506,2.333258 -2.59250999,4.925768 -3.04619899,7.647903 -1.037004,5.768335 0.324064,11.731104 3.69432599,16.462434 7.1294025,10.175599 21.1289545,13.156989 31.2397425,6.74053 l 17.823505,-11.34223 c 4.860956,-3.0462 8.231218,-8.036782 9.203409,-13.67549 0.842566,-4.731331 0.129626,-9.592287 -2.13882,-13.805115 1.555506,-2.333259 2.59251,-4.925768 3.046199,-7.647904 1.101816,-5.833147 -0.259251,-11.795919 -3.694327,-16.527249"
      style="fill:#c73030;fill-opacity:1;stroke-width:0.648;stroke-dasharray:none"
   />
   <path
      id="path2"
      d="m 26.524712,87.086492 c -5.768334,1.4907 -11.795919,-0.77775 -15.166182,-5.6387 -2.0740085,-2.85177 -2.8517605,-6.416466 -2.2684465,-9.916354 0.129626,-0.583315 0.259251,-1.101817 0.388877,-1.685131 l 0.324063,-1.037004 0.9073785,0.648127 c 2.138821,1.555506 4.47208,2.722135 6.999777,3.499888 l 0.648127,0.194438 -0.06481,0.648128 c -0.06481,0.907378 0.194439,1.879569 0.712941,2.657322 1.037004,1.490694 2.85176,2.203636 4.601704,1.749944 0.388877,-0.129625 0.777753,-0.25925 1.101817,-0.453689 L 42.46865,66.411231 c 0.907378,-0.583315 1.490693,-1.42588 1.685131,-2.462884 0.194438,-1.037004 -0.06481,-2.138821 -0.648127,-2.981386 -1.037004,-1.490693 -2.851761,-2.138821 -4.601705,-1.685132 -0.388877,0.129626 -0.777753,0.259251 -1.101817,0.45369 l -6.805338,4.342453 c -1.101816,0.712941 -2.333259,1.231443 -3.629513,1.555506 C 21.598946,67.124171 15.571361,64.855725 12.201099,59.99477 10.191903,57.143009 9.3493375,53.578308 9.9974655,50.07842 10.58078,46.708157 12.654788,43.661958 15.571361,41.847201 l 17.823505,-11.34223 c 1.101816,-0.71294 2.333258,-1.231442 3.629513,-1.620318 5.768335,-1.490694 11.79592,0.777753 15.166182,5.638708 2.074008,2.851761 2.851761,6.416462 2.268446,9.91635 -0.129625,0.583315 -0.259251,1.101817 -0.453689,1.685131 l -0.324064,1.037004 -0.907378,-0.648127 C 50.635056,44.958213 48.301797,43.791584 45.7741,43.013831 l -0.648128,-0.194439 0.06481,-0.648127 c 0.06481,-0.907378 -0.194438,-1.87957 -0.71294,-2.657322 -1.037004,-1.490694 -2.851761,-2.138821 -4.601705,-1.685132 -0.388876,0.129626 -0.777753,0.259251 -1.101817,0.453689 L 21.015629,49.624731 c -0.907379,0.583314 -1.490693,1.42588 -1.685132,2.462884 -0.194438,1.037004 0.06481,2.13882 0.648128,2.981386 1.037004,1.490693 2.851761,2.138821 4.601705,1.685131 0.388876,-0.129625 0.777753,-0.259251 1.101816,-0.453689 l 6.805338,-4.342454 c 1.101817,-0.71294 2.333259,-1.231442 3.629514,-1.620318 5.768334,-1.490693 11.795919,0.777753 15.166182,5.638708 2.074008,2.851761 2.851761,6.416462 2.268446,9.91635 -0.583315,3.370263 -2.657323,6.416462 -5.573896,8.231219 L 30.154226,85.466182 c -1.101817,0.71294 -2.333259,1.23144 -3.629514,1.62031"
      style="fill:#FFFFFF;fill-opacity:1;stroke-width:0.648127"
   />
   <g transform="matrix(0.39837393,0,0,0.39837393,-217.26304,-108.82733)">
      <path
         id="path2-2"
         class="st1"
         d="m 724.47566,321.00241 c -3.20834,-3.88041 -7.2644,-6.25338 -11.86679,-8.19934 -7.40673,-3.16785 -14.56304,-6.83562 -21.8003,-10.3049 -8.33974,-3.95965 -16.43667,-8.5146 -24.19449,-13.67265 -7.55049,-4.98201 -15.27807,-9.75802 -23.84568,-12.93116 -8.76741,-3.25354 -17.79594,-3.7006 -26.64824,-0.70341 -8.38701,2.76955 -19.93815,7.12316 -25.79699,13.73023 -8.52487,6.85261 -11.92895,18.04317 -17.8493,27.53728 -0.77411,1.21346 2.71289,3.53456 2.81114,4.77583 26.97181,-8.64227 52.96158,-4.04518 78.51764,6.0622 11.17976,4.41002 22.35197,8.72454 33.84815,12.24516 4.35716,1.29289 7.37115,3.93924 9.41872,7.81445 4.45156,8.58704 4.28248,17.43933 1.11897,26.33361 -0.55137,1.58047 -1.2169,1.72844 -2.54945,0.77577 -0.82172,-0.60827 -1.54745,-1.22404 -2.6122,-1.23687 -0.0863,1.35178 -0.64558,2.83668 -0.34731,4.15846 1.20531,4.22923 1.08033,8.75461 2.18192,12.8958 0.83375,3.20143 1.10612,6.63891 3.44728,9.33814 3.41442,-0.84342 6.44219,-2.90566 10.23572,-2.62583 0.26969,-6.36211 13.05642,-6.99228 9.91595,-13.08554 -0.41609,-15.1194 4.49807,-22.24492 8.8148,-31.22939 2.32787,-4.79371 3.86429,-9.81376 4.22469,-15.0301 0.25438,-6.55317 -3.05982,-11.77037 -7.02413,-16.64855 z"
         style="fill:#c73030;stroke:none;stroke-width:4.09571;stroke-dasharray:none;stroke-opacity:1"
      />
      <path
         id="path3"
         class="st0"
         d="m 701.52929,365.83579 c 3.03558,-8.91901 3.19728,-17.79626 -1.0735,-26.40735 -1.86494,-3.79778 -4.75659,-6.45178 -9.03636,-7.83622 -11.0294,-3.53046 -21.74807,-7.85706 -32.47396,-12.2795 -24.52574,-10.23136 -48.28864,-15.02114 -74.25762,-6.3472 -8.78195,4.08987 -16.81685,10.41868 -20.44656,20.06093 -2.70462,7.15789 2.40711,29.66522 2.78878,37.14904 0.0675,2.11408 4.88187,-9.45901 6.32086,-10.05839 15.36048,-6.65075 21.50192,-11.34912 35.93798,-13.33927 8.23423,-1.84786 22.18395,-3.62326 40.01676,0.31457 10.56629,2.31581 37.57952,12.81059 47.17207,18.19274 1.02151,0.0129 1.81729,0.71833 2.50612,1.24033 1.37797,1.04355 2.01614,0.89507 2.54544,-0.68973 z"
         style="fill:#FFFFFF;stroke:#c73030;stroke-width:11.5847;stroke-dasharray:none;stroke-opacity:1"
      />
      <path
         id="path4"
         class="st0"
         d="m 684.48822,401.25159 c 0.008,5.34799 2.2004,10.16389 2.86138,11.39027 0.49902,0.92585 0.67824,1.03726 0.81685,1.36497 5.13133,7.83544 16.58947,11.4483 25.76475,7.56596 8.63201,-3.61391 14.00068,-12.84003 12.71592,-21.99398 -1.35536,-10.05134 -8.78051,-16.91615 -19.61338,-18.32091 -4.09115,-0.35523 -8.29513,0.85445 -12.96822,3.09582 -4.19973,3.06607 -8.46189,8.1209 -9.26152,14.91353 z"
         style="fill:#FFFFFF;stroke:#c73030;stroke-width:13.2273;stroke-dasharray:none;stroke-opacity:1"
      />
   </g>
</svg>